<svg id="bold" enable-background="new 0 0 24 24" height="512" viewBox="0 0 24 24" width="512" xmlns="http://www.w3.org/2000/svg"><path fill="#fff" d="m16.74 7.44-1.1 1.1c.18.35.34.71.46 1.08.45-.08.92-.12 1.4-.12h.13c-.21-.73-.51-1.42-.89-2.06zm-16.75 4.56c0 4.96 4.04 9 9 9 .43 0 .86-.03 1.28-.09-.22-.46-.4-.94-.53-1.45-.25.03-.5.04-.75.04-4.14 0-7.5-3.36-7.5-7.5s3.36-7.5 7.5-7.5c1.25 0 2.43.31 3.47.86l1.1-1.1c-1.34-.8-2.9-1.26-4.57-1.26-4.96 0-9 4.04-9 9z"/><path fill="#fff" d="m3.49 12c0 3.03 2.47 5.5 5.5 5.5.17 0 .34-.01.51-.03 0-.52.05-1.03.15-1.53-.21.04-.43.06-.66.06-2.21 0-4-1.79-4-4s1.79-4 4-4c.26 0 .51.02.75.08l1.21-1.21c-.61-.24-1.27-.37-1.96-.37-3.03 0-5.5 2.47-5.5 5.5z"/><path fill="#fff" d="m8.99 10c-1.1 0-2 .9-2 2s.9 2 2 2 2-.9 2-2-.9-2-2-2zm0 2.5c-.28 0-.5-.22-.5-.5s.22-.5.5-.5.5.22.5.5-.22.5-.5.5z"/><path fill="#fff" d="m9 12.75c-.192 0-.384-.073-.53-.22-.293-.293-.293-.768 0-1.061l6.5-6.5c.293-.293.768-.293 1.061 0s.293.768 0 1.061l-6.5 6.5c-.147.147-.339.22-.531.22z"/><path fill="#fff" d="m18.25 6h-2.5c-.414 0-.75-.336-.75-.75v-2.5c0-.199.079-.39.22-.53l2-2c.215-.214.538-.279.817-.163.28.116.463.39.463.693v1.75h1.75c.303 0 .577.183.693.463s.052.603-.163.817l-2 2c-.14.141-.331.22-.53.22z"/><path fill="#fff" d="m17.5 11c-3.584 0-6.5 2.916-6.5 6.5s2.916 6.5 6.5 6.5 6.5-2.916 6.5-6.5-2.916-6.5-6.5-6.5zm2.8 5.26-3.25 3.5c-.148.159-.349.24-.55.24-.173 0-.347-.06-.488-.181l-1.75-1.5c-.314-.27-.351-.743-.081-1.058s.742-.352 1.058-.081l1.203 1.031 2.758-2.971c.282-.304.756-.321 1.06-.04.304.282.322.757.04 1.06z"/></svg>