<?xml version="1.0" encoding="UTF-8" standalone="no"?>
<svg
   xmlns:dc="http://purl.org/dc/elements/1.1/"
   xmlns:cc="http://creativecommons.org/ns#"
   xmlns:rdf="http://www.w3.org/1999/02/22-rdf-syntax-ns#"
   xmlns:svg="http://www.w3.org/2000/svg"
   xmlns="http://www.w3.org/2000/svg"
   xmlns:sodipodi="http://sodipodi.sourceforge.net/DTD/sodipodi-0.dtd"
   xmlns:inkscape="http://www.inkscape.org/namespaces/inkscape"
   width="25.328978mm"
   height="7.9375mm"
   viewBox="0 0 25.328978 7.9375"
   version="1.1"
   id="svg8"
   inkscape:version="1.0.2 (e86c870879, 2021-01-15, custom)"
   sodipodi:docname="jobit-logo-indigo-500-mark-white-text.svg">
  <defs
     id="defs2" />
  <sodipodi:namedview
     id="base"
     pagecolor="#000000"
     bordercolor="#666666"
     borderopacity="1.0"
     inkscape:pageopacity="0"
     inkscape:pageshadow="2"
     inkscape:zoom="1.4"
     inkscape:cx="76.522587"
     inkscape:cy="-16.428573"
     inkscape:document-units="mm"
     inkscape:current-layer="g29"
     inkscape:document-rotation="0"
     showgrid="false"
     showborder="false"
     inkscape:window-width="1280"
     inkscape:window-height="961"
     inkscape:window-x="1358"
     inkscape:window-y="-8"
     inkscape:window-maximized="1"
     fit-margin-top="0"
     fit-margin-left="0"
     fit-margin-right="0"
     fit-margin-bottom="0" />
  <metadata
     id="metadata5">
    <rdf:RDF>
      <cc:Work
         rdf:about="">
        <dc:format>image/svg+xml</dc:format>
        <dc:type
           rdf:resource="http://purl.org/dc/dcmitype/StillImage" />
        <dc:title />
      </cc:Work>
    </rdf:RDF>
  </metadata>
  <g
     inkscape:label="Layer 1"
     inkscape:groupmode="layer"
     id="layer1"
     transform="translate(-43.267996,-92.037202)">
    <g
       style="fill:none"
       id="g850"
       transform="matrix(0.26458333,0,0,0.26458333,43.003217,91.772619)">
      <text
         xml:space="preserve"
         style="font-style:normal;font-weight:normal;font-size:40px;line-height:1.25;font-family:sans-serif;fill:#eeeeee;fill-opacity:1;stroke:none"
         x="43.896725"
         y="-169"
         id="text854"><tspan
           sodipodi:role="line"
           id="tspan852"
           x="43.896725"
           y="-169" /></text>
      <g
         id="g849">
        <g
           id="g847">
          <g
             id="g868"
             inkscape:export-xdpi="21.923"
             inkscape:export-ydpi="21.923">
            <g
               id="g860">
              <g
                 id="g853">
                <g
                   id="g23">
                  <g
                     id="g29">
                    <path
                       fill="#6366f1"
                       d="M 15.258,26.865 A 4.043,4.043 0 0 1 14.125,29.782 4.006,4.006 0 0 1 11.253,31 3.992,3.992 0 0 1 8.381,29.782 4.028,4.028 0 0 1 7.248,26.865 c 0.009,-0.698 0.2,-1.382 0.557,-1.981 0.356,-0.6 0.863,-1.094 1.47,-1.433 -0.024,0.109 0.09,-0.055 0,0 l 1.86,-1.652 a 8.495,8.495 0 0 0 2.304,-5.793 c 0,-2.926 -1.711,-5.901 -4.17,-7.457 0.094,0.055 -0.036,-0.094 0,0 A 3.952,3.952 0 0 1 7.8,7.116 3.975,3.975 0 0 1 7.243,5.136 4.042,4.042 0 0 1 8.376,2.218 4.006,4.006 0 0 1 11.247,1 a 3.99,3.99 0 0 1 2.872,1.218 4.025,4.025 0 0 1 1.133,2.917 8.521,8.521 0 0 0 2.347,5.832 l 0.817,0.8 c 0.326,0.285 0.668,0.551 1.024,0.798 0.621,0.33 1.142,0.826 1.504,1.431 a 3.902,3.902 0 0 1 -1.504,5.442 c 0.033,-0.067 -0.063,0.036 0,0 a 8.968,8.968 0 0 0 -3.024,3.183 9.016,9.016 0 0 0 -1.158,4.244 z M 19.741,5.123 c 0,0.796 0.235,1.575 0.676,2.237 A 4.01,4.01 0 0 0 22.215,8.842 3.99,3.99 0 0 0 26.581,7.969 4.042,4.042 0 0 0 27.45,3.583 4.02,4.02 0 0 0 25.974,1.777 3.994,3.994 0 0 0 20.916,2.278 4.038,4.038 0 0 0 19.741,5.123 Z m 4.007,17.717 c -0.792,0 -1.567,0.236 -2.226,0.678 a 4.021,4.021 0 0 0 -1.476,1.806 4.042,4.042 0 0 0 0.869,4.387 3.99,3.99 0 0 0 4.366,0.873 4.01,4.01 0 0 0 1.799,-1.484 4.039,4.039 0 0 0 -0.5,-5.082 4,4 0 0 0 -2.832,-1.18 z M 34,15.994 c 0,-0.796 -0.235,-1.574 -0.675,-2.236 a 4.01,4.01 0 0 0 -1.798,-1.483 3.99,3.99 0 0 0 -4.367,0.873 4.042,4.042 0 0 0 -0.869,4.387 4.02,4.02 0 0 0 1.476,1.806 3.993,3.993 0 0 0 2.226,0.678 4.003,4.003 0 0 0 2.832,-1.18 A 4.04,4.04 0 0 0 34,15.993 Z"
                       id="path833" />
                    <path
                       fill="#6366f1"
                       d="m 5.007,11.969 c -0.793,0 -1.567,0.236 -2.226,0.678 A 4.021,4.021 0 0 0 1.305,14.454 4.042,4.042 0 0 0 2.174,18.84 4.001,4.001 0 0 0 6.54,19.713 4.011,4.011 0 0 0 8.338,18.23 4.038,4.038 0 0 0 7.838,13.15 4.004,4.004 0 0 0 5.007,11.969 Z"
                       id="path835" />
                    <text
                       xml:space="preserve"
                       style="font-style:normal;font-variant:normal;font-weight:800;font-stretch:normal;font-size:21.3605px;line-height:1.25;font-family:'SF UI Display';-inkscape-font-specification:'SF UI Display, Ultra-Bold';font-variant-ligatures:normal;font-variant-caps:normal;font-variant-numeric:normal;font-variant-east-asian:normal;fill:#fefefe;fill-opacity:1;stroke:none;stroke-width:0.534013;"
                       x="45.938538"
                       y="22.112362"
                       id="text862"><tspan
                         sodipodi:role="line"
                         id="tspan860"
                         x="45.938538"
                         y="22.112362"
                         style="font-style:normal;font-variant:normal;font-weight:800;font-stretch:normal;font-size:21.36050061px;font-family:'SF UI Display';-inkscape-font-specification:'SF UI Display, Ultra-Bold';font-variant-ligatures:normal;font-variant-caps:normal;font-variant-numeric:normal;font-variant-east-asian:normal;stroke-width:0.534013;">jobIT</tspan></text>
                  </g>
                </g>
              </g>
            </g>
          </g>
        </g>
      </g>
    </g>
  </g>
</svg>
